<svg width="20" height="20" viewBox="0 0 20 20" xmlns="http://www.w3.org/2000/svg" fill="none" overflow="hidden"><path d="M14.6907 11.5031C15.69 11.5031 16.5 12.3131 16.5 13.3124L16.5 14.0019 16.4947 14.0019C16.4607 14.7813 16.247 15.7588 15.3718 16.5574 14.4158 17.4297 12.7655 18 10 18 7.23446 18 5.58423 17.4297 4.6282 16.5574 3.75297 15.7588 3.53931 14.7813 3.50533 14.0019L3.5 14.0019 3.5 13.3124C3.5 12.3131 4.31005 11.5031 5.3093 11.5031L14.6907 11.5031Z" fill="#6436CA"/><path d="M6.5 3C5.67157 3 5 3.67157 5 4.5L5 8.5C5 9.32843 5.67157 10 6.5 10L13.5 10C14.3284 10 15 9.32843 15 8.5L15 4.5C15 3.67157 14.3284 3 13.5 3L10.5 3C10.5 3 10.5 2.80859 10.5 2.5 10.5 2.19141 10.2761 2 10 2 9.72386 2 9.5 2.23047 9.5 2.5 9.5 2.76953 9.5 3 9.5 3L6.5 3ZM7 6.5C7 5.94771 7.44772 5.5 8 5.5 8.55228 5.5 9 5.94771 9 6.5 9 7.05228 8.55228 7.5 8 7.5 7.44772 7.5 7 7.05228 7 6.5ZM11 6.5C11 5.94771 11.4477 5.5 12 5.5 12.5523 5.5 13 5.94771 13 6.5 13 7.05228 12.5523 7.5 12 7.5 11.4477 7.5 11 7.05228 11 6.5Z" fill="#6436CA"/></svg>