<svg width="1200" height="1200" viewBox="0 0 1200 1200" xmlns="http://www.w3.org/2000/svg" id="svg2" overflow="hidden"><defs id="defs32"></defs><path d="M596.847 188.488C493.503 188.488 409.727 286.298 409.727 406.953 409.727 490.631 450.022 563.305 509.195 600L440.578 631.801 257.979 716.489C240.339 725.31 231.535 740.268 231.535 761.436 231.535 828.47 231.535 895.504 231.535 962.538 232.986 987.681 248.071 1011.12 272.53 1011.51L922.151 1011.51C950.074 1009.08 964.2 986.592 964.476 962.538 964.476 895.504 964.476 828.47 964.476 761.436 964.476 740.268 955.672 725.31 938.032 716.489L762.044 631.801 688.906 597.151C745.651 559.629 783.967 488.526 783.967 406.953 783.967 286.298 700.19 188.488 596.847 188.488ZM295.023 265.312C250.55 267.001 215.304 286.244 188.526 316.907 158.906 353.825 144.466 397.657 144.187 441.261 146.006 505.739 174.856 566.78 226.216 598.708L21.1627 693.997C7.05024 699.289 3.625e-06 711.636 3.625e-06 731.041L3.625e-06 892.439C1.1018 913.845 12.2159 931.833 33.0546 932.143L169.339 932.143 169.339 761.436C171.594 715.797 193.026 678.907 231.535 660.904L367.781 596.087C378.365 589.912 388.512 581.519 398.214 570.935 342.038 484.259 334.237 380.443 370.441 289.134 346.895 274.723 320.432 265.463 295.023 265.311ZM903.61 265.312C874.526 265.92 847.65 276.63 825.57 291.755 860.787 383.893 851.073 487.772 799.088 568.275 810.555 581.506 822.492 591.653 834.84 598.708L965.805 660.905C1005.7 682.785 1026.28 720.002 1026.67 761.436L1026.67 932.143 1166.91 932.143C1189.97 930.152 1199.8 911.756 1200 892.44L1200 731.042C1200 713.401 1192.95 701.055 1178.84 693.997L976.406 597.379C1028.9 558.671 1055.27 500.66 1055.78 441.262 1054.38 394.25 1040.02 350.597 1011.44 316.908 981.57 284.509 944.526 265.655 903.609 265.312Z" id="path10706" fill="#6436CA"/></svg>