<svg viewBox="0 0 64 64" xmlns="http://www.w3.org/2000/svg" overflow="hidden"><g id="Human_employees_management"><path d="M58.0879 21.4555C57.081 19.0922 55.1868 17.2186 52.8127 16.2374 52.4611 16.0859 52.2334 15.7397 52.2334 15.3569 52.231 15.0863 52.3409 14.8268 52.5369 14.6402 52.5962 14.5837 52.6528 14.5283 52.6953 14.4835 52.9955 14.1675 53.2603 13.8197 53.4853 13.4464 55.1774 10.6235 54.2607 6.96329 51.4377 5.2712 50.1808 4.51779 48.6904 4.25392 47.2512 4.53 44.8955 4.94244 43.0316 6.75325 42.5512 9.096 42.11 11.0999 42.7307 13.1898 44.1943 14.6279 44.3917 14.8149 44.5054 15.0736 44.5097 15.3455L44.5097 15.3505C44.5131 15.7367 44.2845 16.0873 43.9297 16.24 43.3938 16.4648 42.8789 16.7365 42.3909 17.052 43.2434 18.0421 43.9477 19.1507 44.4815 20.3432 45.3498 22.3107 45.7867 24.4413 45.7627 26.5918L45.7627 27.878C45.7585 28.5998 45.5888 29.3109 45.2666 29.9568L57.0506 29.9568C58.1986 29.9572 59.1296 29.0268 59.13 27.8788 59.13 27.8785 59.13 27.8782 59.13 27.8779L59.13 26.5917C59.1511 24.8251 58.7959 23.0742 58.0879 21.4555Z" fill="#6436CA"/><path d="M15.1052 36.6892 8.5471 36.6892C7.97096 36.6892 7.5039 37.1563 7.5039 37.7324 7.5039 37.7325 7.5039 37.7325 7.5039 37.7326L7.5039 60.1142C7.50379 60.6904 7.9708 61.1576 8.547 61.1577 8.54703 61.1577 8.54707 61.1577 8.5471 61.1577L15.1052 61.1577C16.3614 61.1579 17.3798 60.1397 17.38 58.8835 17.38 58.8834 17.38 58.8833 17.38 58.8832L17.38 38.9632C17.3798 37.7071 16.3613 36.689 15.1052 36.6892Z" fill="#6436CA"/><path d="M56.3279 39.3642C55.6236 38.2919 54.4262 37.6468 53.1433 37.6484L50.5733 37.6484C48.3178 37.6437 46.2839 39.0046 45.4278 41.0913 45.1793 41.6843 44.8331 42.2315 44.4036 42.71 42.9226 44.9842 40.4317 46.4 37.72 46.5092L30.1077 46.5097C29.3621 46.5097 28.7577 45.9053 28.7577 45.1597 28.7577 44.4141 29.3621 43.8097 30.1077 43.8097L37.6839 43.8097C38.6573 43.7847 39.603 43.4804 40.4083 42.9331L40.4083 42.8874C40.4195 40.0052 38.092 37.6596 35.2097 37.6484 35.2032 37.6484 35.1966 37.6484 35.19 37.6484L29.604 37.6484C27.5424 37.6424 25.5637 38.4595 24.107 39.9184L23.9644 40.0605C22.9075 41.1158 21.5503 41.8187 20.0786 42.0732L20.0786 56.9848 40.45 56.9848C46.624 56.9887 52.2059 53.312 54.64 47.6381L56.6468 42.9672C57.1552 41.7893 57.0353 40.4345 56.3279 39.3642Z" fill="#6436CA"/><path d="M5.4837 26.604C5.46256 24.8368 5.81705 23.0852 6.5237 21.4653 7.52885 19.0999 9.42229 17.2236 11.7967 16.24 12.1515 16.0873 12.3801 15.7367 12.3767 15.3505L12.3767 15.3455C12.3724 15.0736 12.2588 14.8149 12.0614 14.6278 10.5977 13.1898 9.97679 11.0999 10.4178 9.096 10.8982 6.75323 12.7621 4.94238 15.1178 4.5299 18.3478 3.90669 21.4714 6.01992 22.0947 9.24992 22.4593 11.1396 21.8883 13.089 20.5619 14.4835 20.5194 14.5282 20.4627 14.5835 20.4036 14.6402 20.2075 14.8267 20.0976 15.0863 20.1001 15.3569L20.1001 15.3569C20.1001 15.7398 20.3279 16.0859 20.6795 16.2374 23.0535 17.2186 24.9477 19.0923 25.9546 21.4556 26.6624 23.0744 27.0175 24.8252 26.9963 26.5918L26.9963 27.8779C26.9962 29.026 26.0655 29.9567 24.9174 29.9568L7.5626 29.9568C6.41448 29.9567 5.48376 29.026 5.4837 27.8779Z" fill="#6436CA"/><path d="M42.0212 21.4555C41.0143 19.0923 39.1202 17.2186 36.7463 16.2374 36.3944 16.0861 36.1664 15.7399 36.1663 15.3569 36.1639 15.0862 36.2739 14.8266 36.47 14.64 36.5291 14.5835 36.5858 14.5281 36.6282 14.4833 36.9285 14.1674 37.1934 13.8197 37.4182 13.4462 39.1101 10.6231 38.1931 6.96304 35.3701 5.27113 34.1135 4.51801 32.6234 4.25417 31.1846 4.53 28.829 4.94249 26.965 6.75328 26.4846 9.096 26.0434 11.0999 26.6643 13.1898 28.1279 14.6279 28.3252 14.815 28.4388 15.0736 28.4431 15.3455L28.4431 15.3505C28.4466 15.7368 28.218 16.0874 27.8631 16.24 27.3273 16.4648 26.8124 16.7365 26.3245 17.052 27.1769 18.042 27.881 19.1507 28.4145 20.3432 29.283 22.3107 29.7199 24.4413 29.696 26.5918L29.696 27.878C29.6918 28.5997 29.5222 29.3109 29.2 29.9567L40.9841 29.9567C42.1321 29.9568 43.0629 29.0262 43.063 27.8782 43.063 27.8781 43.063 27.878 43.063 27.8779L43.063 26.5917C43.0842 24.8251 42.7291 23.0742 42.0212 21.4555Z" fill="#6436CA"/></g></svg>