<svg viewBox="0 0 512 512" xmlns="http://www.w3.org/2000/svg" id="Layer_1" overflow="hidden"><g><path d="M482.772 284.126C449.227 278.551 414.695 282.706 383.439 296.098L368.861 302.342C368.861 302.342 349.53 291.004 347.223 289.924 335.198 284.278 275.995 270.78 269.633 268.809 257.027 264.889 246.769 255.293 241.862 243.233 280.76 226.314 301.376 182.586 304.663 138.618L304.663 132.033 321.195 132.033C326.178 132.033 330.209 127.995 330.209 123.019 330.209 118.042 326.177 114.005 321.195 114.005L309.927 114.005 308.68 101.359C305.75 71.651 285.12 46.677 256.499 38.193L240.067 33.322 240.067 27.172C240.067 22.194 236.031 18.158 231.053 18.158L179.743 18.158C174.775 18.158 170.744 22.181 170.735 27.149L170.723 33.264 153.915 38.252C125.408 46.713 104.818 71.532 101.769 101.112L100.44 114.005 89.401 114.005C84.424 114.005 80.387 118.043 80.387 123.019 80.387 127.996 84.425 132.033 89.401 132.033L106.361 132.033 106.373 139.298C109.624 182.468 130.006 225.826 168.458 242.933 163.605 255.251 153.822 264.852 140.934 268.831 129.983 272.211 87.47 281.519 87.47 281.519 87.464 281.519 87.458 281.519 87.458 281.519 81.583 282.822 29.898 295.416 23.936 337.177 20.339 362.295 16.142 386.133 16.137 386.18 15.673 388.797 16.401 391.497 18.109 393.539 19.823 395.581 22.352 396.755 25.016 396.755L241.722 396.755 242.112 474.372C242.125 476.942 243.232 479.385 245.157 481.089L245.157 481.089C247.189 482.888 249.879 483.684 252.558 483.245 266.459 480.97 312.221 477.921 356.149 490.313 359.095 491.144 366.228 492.594 370.387 493.416 372.474 493.829 374.588 493.939 376.708 493.749 376.708 493.749 420.411 474.193 485.647 484.021 491.293 484.872 495.999 479.373 495.999 473.669L495.999 299.76C496 291.99 490.442 285.417 482.772 284.126ZM251.376 55.471C273.061 61.903 288.507 80.601 290.737 103.113L291.817 114.005 240.067 114.005 240.067 52.12 251.376 55.471ZM222.039 36.187 222.039 114.005 188.576 114.005 188.746 36.187 222.039 36.187ZM119.707 102.937C122.008 80.542 137.448 61.939 159.045 55.53L170.683 52.079 170.548 114.005 118.569 114.005 119.707 102.937ZM124.379 138.618 124.379 132.033 286.648 132.033 286.66 137.937C283.115 185.074 256.648 232.622 205.508 232.622 154.368 232.622 127.9 185.075 124.379 138.618ZM205.507 250.651C212.279 250.651 218.629 249.882 224.692 248.644 227.978 257.365 233.102 265.065 239.634 271.362L205.748 298.88 171.317 271.068C177.702 264.806 182.696 257.189 185.901 248.573 192.085 249.865 198.576 250.651 205.507 250.651ZM119.003 292.976 142.419 378.729 85.54 378.729 85.54 300.723C88.756 299.731 111.532 294.695 119.003 292.976ZM41.777 339.737C43.943 324.596 55.885 314.543 67.511 308.222L67.511 378.728 35.697 378.728C37.27 369.28 39.641 354.679 41.777 339.737ZM161.105 378.729 136.539 288.751C140.183 287.812 152.948 283.557 156.093 281.961L200.102 317.496C201.751 318.822 203.758 319.491 205.765 319.491 207.778 319.491 209.791 318.822 211.446 317.472 211.446 317.472 242.237 294.534 241.722 294.534L241.722 378.729 161.105 378.729ZM291.624 462.58C281.002 462.58 270.291 463.308 259.751 464.728L259.751 301.626C289.376 297.013 319.67 300.887 347.188 312.671L364.553 320.118 364.553 474.035C364.554 474.036 315.316 462.58 291.624 462.58ZM477.971 464.763C446.069 460.379 413.533 462.568 382.582 471.066L382.582 316.086 390.54 312.67C418.064 300.874 448.393 297.059 477.971 301.613L477.971 464.763Z" fill="#6436CA"/><path d="M325.492 378.729 289.435 378.729C284.458 378.729 280.421 382.767 280.421 387.743 280.421 392.72 284.459 396.757 289.435 396.757L325.492 396.757C330.469 396.757 334.506 392.719 334.506 387.743 334.506 382.766 330.468 378.729 325.492 378.729Z" fill="#6436CA"/><path d="M325.492 414.786 289.435 414.786C284.458 414.786 280.421 418.824 280.421 423.8 280.421 428.776 284.459 432.814 289.435 432.814L325.492 432.814C330.469 432.814 334.506 428.776 334.506 423.8 334.506 418.824 330.468 414.786 325.492 414.786Z" fill="#6436CA"/><path d="M445.682 378.729 409.625 378.729C404.648 378.729 400.611 382.767 400.611 387.743 400.611 392.72 404.649 396.757 409.625 396.757L445.682 396.757C450.659 396.757 454.696 392.719 454.696 387.743 454.696 382.766 450.659 378.729 445.682 378.729Z" fill="#6436CA"/><path d="M325.492 342.672 289.435 342.672C284.458 342.672 280.421 346.71 280.421 351.686 280.421 356.662 284.459 360.7 289.435 360.7L325.492 360.7C330.469 360.7 334.506 356.662 334.506 351.686 334.506 346.71 330.468 342.672 325.492 342.672Z" fill="#6436CA"/><path d="M445.682 342.672 409.625 342.672C404.648 342.672 400.611 346.71 400.611 351.686 400.611 356.662 404.649 360.7 409.625 360.7L445.682 360.7C450.659 360.7 454.696 356.662 454.696 351.686 454.696 346.71 450.659 342.672 445.682 342.672Z" fill="#6436CA"/><path d="M421.644 414.786 409.625 414.786C404.648 414.786 400.611 418.824 400.611 423.8 400.611 428.776 404.649 432.814 409.625 432.814L421.644 432.814C426.621 432.814 430.658 428.776 430.658 423.8 430.658 418.824 426.621 414.786 421.644 414.786Z" fill="#6436CA"/></g></svg>