<svg viewBox="0 0 1010 1010" xmlns="http://www.w3.org/2000/svg" id="graph-5" overflow="hidden"><g id="graph-5-graph-5"><path d="M1010 928.504 81.4746 928.504 81.4746 0 44.7754 0 44.7754 928.504 0 928.504 0 965.245 44.7754 965.245 44.7754 1010 81.4746 1010 81.4746 965.245 1010 965.245Z" fill="#6436CA"/><path d="M399.812 465.588C389.661 465.588 381.442 473.787 381.442 483.938L381.442 862.688C381.442 872.839 389.661 881.059 399.812 881.059L483.938 881.059C494.089 881.059 502.308 872.839 502.308 862.688L502.308 483.938C502.308 473.787 494.089 465.588 483.938 465.588L399.812 465.588Z" fill="#6436CA"/><path d="M189.375 633.9C179.224 633.9 171.025 642.141 171.025 652.271L171.025 862.688C171.025 872.839 179.224 881.059 189.375 881.059L273.562 881.059C283.672 881.059 291.912 872.839 291.912 862.688L291.912 652.271C291.912 642.141 283.672 633.9 273.562 633.9L189.375 633.9Z" fill="#6436CA"/><path d="M610.209 633.9C600.078 633.9 591.858 642.141 591.858 652.271L591.858 862.688C591.858 872.839 600.078 881.059 610.209 881.059L694.375 881.059C704.525 881.059 712.745 872.839 712.745 862.688L712.745 652.271C712.745 642.141 704.525 633.9 694.375 633.9L610.209 633.9Z" fill="#6436CA"/><path d="M820.625 423.504C810.475 423.504 802.254 431.724 802.254 441.875L802.254 862.688C802.254 872.839 810.475 881.059 820.625 881.059L904.791 881.059C914.922 881.059 923.142 872.839 923.142 862.688L923.142 441.875C923.142 431.724 914.922 423.504 904.791 423.504L820.625 423.504Z" fill="#6436CA"/><path d="M173.286 598.434C177.477 598.434 181.669 597.016 185.122 594.098L466.759 356.023 621.469 511.103C624.9 514.576 629.894 516.076 634.477 516.486 639.367 516.466 644.052 514.535 647.504 511.063L903.538 252.808C910.69 245.616 910.607 233.965 903.415 226.835 896.223 219.684 884.572 219.705 877.462 226.938L634.414 472.081 480.815 318.132C474.075 311.351 463.287 310.899 455.971 317.064L161.409 566.05C153.641 572.604 152.696 584.193 159.251 591.941 162.868 596.235 168.066 598.434 173.286 598.434Z" fill="#6436CA"/></g></svg>